<svg width="540" height="367" viewBox="0 0 540 367" fill="none" xmlns="http://www.w3.org/2000/svg">
<g clip-path="url(#clip0)">
<path d="M484.438 358.292C472.327 367.013 456.632 367.451 441.461 366.38C439.342 366.231 437.239 366.055 435.155 365.866C435.142 365.863 435.126 365.864 435.113 365.861C435.013 365.851 434.913 365.842 434.817 365.836C434.387 365.796 433.956 365.756 433.53 365.715L433.631 365.907L433.947 366.503C433.833 366.303 433.72 366.108 433.606 365.909C433.573 365.849 433.535 365.789 433.502 365.729C429.572 358.893 425.674 351.806 424.68 344C423.652 335.898 426.54 326.724 433.675 322.741C434.61 322.22 435.601 321.806 436.629 321.505C437.055 321.375 437.488 321.27 437.925 321.177C440.601 320.583 443.386 320.712 445.995 321.551C448.604 322.39 450.943 323.908 452.77 325.95C454.598 327.992 455.848 330.483 456.393 333.168C456.937 335.853 456.757 338.635 455.87 341.227C461.918 335.027 460.79 324.97 458.703 316.565C456.613 308.16 454.082 298.808 458.334 291.258C460.698 287.056 464.854 284.449 469.518 283.399C469.661 283.368 469.804 283.338 469.948 283.311C475.505 282.186 481.283 283.198 486.127 286.144C495.045 291.762 499.626 302.414 501.113 312.848C503.508 329.638 498.207 348.376 484.438 358.292Z" fill="#F2F2F2"/>
<path d="M480.528 331.377C480.176 335.081 479.286 338.713 477.886 342.16C476.595 345.21 474.855 348.05 472.724 350.586C468.294 355.769 462.684 359.813 456.365 362.377C451.586 364.334 446.578 365.679 441.461 366.38C439.342 366.231 437.239 366.055 435.155 365.866C435.142 365.863 435.126 365.864 435.113 365.861C435.013 365.851 434.913 365.842 434.817 365.836C434.387 365.796 433.956 365.756 433.53 365.715L433.631 365.907L433.947 366.503C433.833 366.303 433.72 366.108 433.606 365.909C433.573 365.849 433.535 365.789 433.502 365.73C437.338 361.909 440.203 357.225 441.855 352.071C443.507 346.916 443.899 341.44 442.998 336.103C442.055 330.803 439.873 325.801 436.629 321.505C437.055 321.375 437.488 321.27 437.925 321.177C439.158 322.862 440.24 324.652 441.157 326.528C444.449 333.215 445.499 340.785 444.152 348.116C442.9 354.749 439.78 360.888 435.159 365.812C435.564 365.783 435.973 365.75 436.372 365.714C443.945 365.073 451.503 363.445 458.371 360.112C464.243 357.332 469.34 353.152 473.214 347.939C477.374 342.204 479.207 335.307 479.522 328.296C479.764 320.743 478.972 313.192 477.168 305.854C475.418 298.371 472.759 291.13 469.249 284.293C469.171 284.138 469.155 283.959 469.205 283.792C469.255 283.626 469.367 283.485 469.518 283.399C469.644 283.314 469.799 283.283 469.948 283.311C470.021 283.33 470.088 283.366 470.146 283.415C470.203 283.464 470.249 283.525 470.279 283.594C470.712 284.439 471.137 285.284 471.545 286.139C474.95 293.257 477.456 300.771 479.006 308.507C480.512 315.97 481.315 323.777 480.528 331.377Z" fill="white"/>
<path d="M22.5295 116.65C22.1689 116.649 21.8116 116.582 21.4757 116.451C20.9326 116.242 20.4658 115.873 20.1373 115.393C19.8088 114.913 19.6342 114.345 19.6367 113.763V83.6388C19.6356 82.6192 19.2298 81.6416 18.5085 80.9206C17.7872 80.1995 16.8092 79.794 15.7891 79.7928H9.61757C7.06771 79.7899 4.6231 78.7762 2.82008 76.9739C1.01705 75.1717 0.00285776 72.7282 0 70.1795V9.61327C0.00285946 7.06455 1.01705 4.62104 2.82008 2.81882C4.6231 1.0166 7.06771 0.00285648 9.61757 0H227.305C229.855 0.00285987 232.299 1.0166 234.102 2.81882C235.905 4.62104 236.92 7.06455 236.923 9.61327V70.1795C236.92 72.7282 235.905 75.1717 234.102 76.9739C232.299 78.7761 229.855 79.7899 227.305 79.7928H59.2813C58.7479 79.7934 58.2205 79.9045 57.7323 80.1192C57.2441 80.3339 56.8057 80.6474 56.4449 81.04L24.6485 115.712C24.38 116.007 24.0528 116.243 23.688 116.404C23.3231 116.566 22.9285 116.649 22.5295 116.65ZM9.61757 1.28098C7.40749 1.28347 5.28864 2.16214 3.72587 3.72421C2.1631 5.28628 1.28405 7.40417 1.28155 9.61327V70.1795C1.28405 72.3886 2.16311 74.5065 3.72587 76.0686C5.28864 77.6306 7.40749 78.5093 9.61757 78.5118H15.7891C17.149 78.5133 18.4527 79.054 19.4143 80.0152C20.3759 80.9763 20.9168 82.2795 20.9183 83.6388V113.763C20.9183 114.086 21.0159 114.401 21.1983 114.668C21.3807 114.934 21.6394 115.14 21.9405 115.257C22.2416 115.374 22.571 115.397 22.8857 115.324C23.2003 115.251 23.4855 115.084 23.7038 114.846L55.5002 80.1743C55.9813 79.651 56.5656 79.233 57.2164 78.9469C57.8672 78.6607 58.5703 78.5126 59.2813 78.5118H227.305C229.515 78.5093 231.634 77.6306 233.197 76.0686C234.759 74.5065 235.638 72.3886 235.641 70.1795V9.61327C235.638 7.40418 234.759 5.28628 233.197 3.72421C231.634 2.16214 229.515 1.28347 227.305 1.28098H9.61757Z" fill="#CCCCCC"/>
<path d="M23.5908 27.2786C28.2387 27.2786 32.0065 23.5124 32.0065 18.8666C32.0065 14.2208 28.2387 10.4546 23.5908 10.4546C18.9429 10.4546 15.175 14.2208 15.175 18.8666C15.175 23.5124 18.9429 27.2786 23.5908 27.2786Z" fill="#CCCCCC"/>
<path d="M217.487 65.4127H19.436C18.8461 65.4134 18.2619 65.2979 17.7167 65.0728C17.1715 64.8476 16.6761 64.5173 16.2587 64.1006C15.8414 63.6839 15.5103 63.1891 15.2844 62.6445C15.0585 62.0998 14.9422 61.516 14.9422 60.9263C14.9422 60.3367 15.0585 59.7529 15.2844 59.2082C15.5103 58.6636 15.8414 58.1688 16.2587 57.7521C16.6761 57.3354 17.1715 57.0051 17.7167 56.7799C18.2619 56.5548 18.8461 56.4392 19.436 56.4399H217.487C218.076 56.4392 218.661 56.5548 219.206 56.7799C219.751 57.0051 220.246 57.3354 220.664 57.7521C221.081 58.1688 221.412 58.6636 221.638 59.2082C221.864 59.7529 221.98 60.3367 221.98 60.9263C221.98 61.516 221.864 62.0998 221.638 62.6445C221.412 63.1891 221.081 63.6839 220.664 64.1006C220.246 64.5173 219.751 64.8476 219.206 65.0728C218.661 65.2979 218.076 65.4134 217.487 65.4127Z" fill="#CCCCCC"/>
<path d="M152.966 46.3456H19.436C18.8461 46.3463 18.2619 46.2308 17.7167 46.0056C17.1715 45.7805 16.6761 45.4501 16.2587 45.0335C15.8414 44.6168 15.5103 44.122 15.2844 43.5773C15.0585 43.0326 14.9422 42.4488 14.9422 41.8592C14.9422 41.2696 15.0585 40.6858 15.2844 40.1411C15.5103 39.5964 15.8414 39.1016 16.2587 38.6849C16.6761 38.2683 17.1715 37.9379 17.7167 37.7128C18.2619 37.4876 18.8461 37.3721 19.436 37.3728H152.966C153.556 37.3721 154.14 37.4876 154.685 37.7128C155.23 37.9379 155.726 38.2683 156.143 38.6849C156.56 39.1016 156.892 39.5964 157.117 40.1411C157.343 40.6858 157.46 41.2696 157.46 41.8592C157.46 42.4488 157.343 43.0326 157.117 43.5773C156.892 44.122 156.56 44.6168 156.143 45.0335C155.726 45.4501 155.23 45.7805 154.685 46.0056C154.14 46.2308 153.556 46.3463 152.966 46.3456Z" fill="#CCCCCC"/>
<path d="M22.5295 330.314C22.1689 330.314 21.8116 330.246 21.4757 330.115C20.9326 329.907 20.4658 329.538 20.1374 329.058C19.8089 328.578 19.6343 328.009 19.6367 327.428V297.303C19.6356 296.284 19.2298 295.306 18.5085 294.585C17.7872 293.864 16.8092 293.458 15.7891 293.457H9.61757C7.06772 293.454 4.62311 292.441 2.82009 290.638C1.01706 288.836 0.00286454 286.393 0 283.844V223.278C0.00285945 220.729 1.01706 218.286 2.82008 216.483C4.6231 214.681 7.06771 213.667 9.61757 213.665H227.305C229.855 213.667 232.299 214.681 234.102 216.483C235.905 218.286 236.92 220.729 236.923 223.278V283.844C236.92 286.393 235.905 288.836 234.102 290.638C232.299 292.441 229.855 293.454 227.305 293.457H59.2813C58.7479 293.458 58.2205 293.569 57.7323 293.784C57.2441 293.998 56.8057 294.312 56.4449 294.704L24.6485 329.376C24.38 329.671 24.0528 329.907 23.688 330.069C23.3231 330.23 22.9285 330.314 22.5295 330.314ZM9.61757 214.945C7.40749 214.948 5.28864 215.827 3.72587 217.389C2.1631 218.951 1.28404 221.069 1.28155 223.278V283.844C1.28405 286.053 2.16311 288.171 3.72587 289.733C5.28864 291.295 7.40749 292.174 9.61757 292.176H15.7891C17.149 292.178 18.4527 292.719 19.4143 293.68C20.3759 294.641 20.9168 295.944 20.9183 297.303V327.428C20.9183 327.75 21.0159 328.066 21.1983 328.332C21.3807 328.599 21.6394 328.804 21.9405 328.921C22.2416 329.038 22.571 329.062 22.8857 328.988C23.2003 328.915 23.4855 328.749 23.7038 328.511L55.5002 293.839C55.9813 293.316 56.5656 292.898 57.2164 292.611C57.8672 292.325 58.5703 292.177 59.2813 292.176H227.305C229.515 292.174 231.634 291.295 233.197 289.733C234.759 288.171 235.638 286.053 235.641 283.844V223.278C235.638 221.069 234.759 218.951 233.197 217.389C231.634 215.827 229.515 214.948 227.305 214.946L9.61757 214.945Z" fill="#CCCCCC"/>
<path d="M343.995 219.276C343.596 219.276 343.202 219.192 342.837 219.031C342.472 218.869 342.145 218.633 341.877 218.338L310.08 183.666C309.719 183.274 309.281 182.96 308.793 182.746C308.304 182.531 307.777 182.42 307.244 182.419H139.22C136.67 182.416 134.226 181.403 132.423 179.6C130.62 177.798 129.605 175.355 129.603 172.806V112.24C129.605 109.691 130.62 107.248 132.423 105.445C134.226 103.643 136.67 102.629 139.22 102.626H356.907C359.457 102.629 361.902 103.643 363.705 105.445C365.508 107.247 366.522 109.691 366.525 112.24V172.806C366.522 175.355 365.508 177.798 363.705 179.6C361.902 181.403 359.457 182.416 356.907 182.419H350.736C349.716 182.42 348.738 182.826 348.016 183.547C347.295 184.268 346.889 185.246 346.888 186.265V216.39C346.891 216.971 346.716 217.54 346.388 218.02C346.059 218.5 345.592 218.868 345.049 219.077C344.713 219.208 344.356 219.276 343.995 219.276ZM139.22 103.907C137.01 103.91 134.891 104.789 133.328 106.351C131.766 107.913 130.887 110.031 130.884 112.24V172.806C130.887 175.015 131.766 177.133 133.328 178.695C134.891 180.257 137.01 181.136 139.22 181.138H307.244C307.955 181.139 308.658 181.287 309.309 181.573C309.959 181.859 310.544 182.277 311.025 182.801L342.821 217.473C343.039 217.711 343.325 217.877 343.639 217.95C343.954 218.024 344.283 218 344.584 217.883C344.886 217.766 345.144 217.561 345.327 217.294C345.509 217.028 345.607 216.712 345.607 216.39V186.265C345.608 184.906 346.149 183.603 347.111 182.642C348.072 181.68 349.376 181.14 350.736 181.138H356.907C359.117 181.136 361.236 180.257 362.799 178.695C364.362 177.133 365.241 175.015 365.243 172.806V112.24C365.241 110.031 364.362 107.913 362.799 106.351C361.236 104.789 359.117 103.91 356.907 103.907L139.22 103.907Z" fill="#3F3D56"/>
<path d="M23.5908 240.943C28.2387 240.943 32.0065 237.177 32.0065 232.531C32.0065 227.885 28.2387 224.119 23.5908 224.119C18.9429 224.119 15.175 227.885 15.175 232.531C15.175 237.177 18.9429 240.943 23.5908 240.943Z" fill="#CCCCCC"/>
<path d="M217.487 279.077H19.436C18.8461 279.078 18.2619 278.962 17.7167 278.737C17.1715 278.512 16.6761 278.182 16.2587 277.765C15.8414 277.348 15.5103 276.854 15.2844 276.309C15.0585 275.764 14.9422 275.181 14.9422 274.591C14.9422 274.001 15.0585 273.417 15.2844 272.873C15.5103 272.328 15.8414 271.833 16.2587 271.417C16.6761 271 17.1715 270.67 17.7167 270.444C18.2619 270.219 18.8461 270.104 19.436 270.104H217.487C218.677 270.104 219.819 270.577 220.66 271.419C221.502 272.26 221.975 273.401 221.975 274.591C221.975 275.781 221.502 276.922 220.66 277.763C219.819 278.605 218.677 279.077 217.487 279.077Z" fill="#CCCCCC"/>
<path d="M152.966 260.01H19.436C18.8461 260.011 18.2619 259.896 17.7167 259.67C17.1715 259.445 16.6761 259.115 16.2587 258.698C15.8414 258.282 15.5103 257.787 15.2844 257.242C15.0585 256.697 14.9422 256.114 14.9422 255.524C14.9422 254.934 15.0585 254.351 15.2844 253.806C15.5103 253.261 15.8414 252.766 16.2587 252.35C16.6761 251.933 17.1715 251.603 17.7167 251.378C18.2619 251.152 18.8461 251.037 19.436 251.038H152.966C153.556 251.037 154.14 251.152 154.685 251.378C155.23 251.603 155.726 251.933 156.143 252.35C156.56 252.766 156.892 253.261 157.117 253.806C157.343 254.351 157.46 254.934 157.46 255.524C157.46 256.114 157.343 256.697 157.117 257.242C156.892 257.787 156.56 258.282 156.143 258.698C155.726 259.115 155.23 259.445 154.685 259.67C154.14 259.896 153.556 260.011 152.966 260.01Z" fill="#CCCCCC"/>
<path d="M153.193 129.344C157.841 129.344 161.609 125.578 161.609 120.932C161.609 116.286 157.841 112.52 153.193 112.52C148.545 112.52 144.778 116.286 144.778 120.932C144.778 125.578 148.545 129.344 153.193 129.344Z" fill="#3F3D56"/>
<path d="M347.089 167.478H149.039C147.848 167.478 146.706 167.006 145.865 166.164C145.023 165.323 144.55 164.182 144.55 162.992C144.55 161.802 145.023 160.661 145.865 159.82C146.706 158.978 147.848 158.506 149.039 158.506H347.089C348.279 158.506 349.421 158.978 350.263 159.82C351.105 160.661 351.577 161.802 351.577 162.992C351.577 164.182 351.105 165.323 350.263 166.164C349.421 167.006 348.279 167.478 347.089 167.478Z" fill="#106964"/>
<path d="M282.568 148.411H149.038C148.449 148.412 147.864 148.296 147.319 148.071C146.774 147.846 146.279 147.516 145.861 147.099C145.444 146.682 145.113 146.188 144.887 145.643C144.661 145.098 144.545 144.514 144.545 143.925C144.545 143.335 144.661 142.751 144.887 142.207C145.113 141.662 145.444 141.167 145.861 140.751C146.279 140.334 146.774 140.004 147.319 139.778C147.864 139.553 148.449 139.438 149.038 139.438H282.568C283.158 139.438 283.742 139.553 284.288 139.778C284.833 140.004 285.328 140.334 285.746 140.751C286.163 141.167 286.494 141.662 286.72 142.207C286.946 142.751 287.062 143.335 287.062 143.925C287.062 144.514 286.946 145.098 286.72 145.643C286.494 146.188 286.163 146.682 285.746 147.099C285.328 147.516 284.833 147.846 284.288 148.071C283.742 148.296 283.158 148.412 282.568 148.411Z" fill="#106964"/>
<path d="M347.003 230.806C347.195 229.884 347.587 229.016 348.152 228.262C348.716 227.508 349.439 226.887 350.269 226.442C351.1 225.998 352.018 225.741 352.958 225.69C353.899 225.638 354.839 225.793 355.713 226.145L370.746 208.879L373.939 220.337L359.174 234.976C358.487 236.404 357.299 237.531 355.836 238.143C354.373 238.754 352.736 238.808 351.235 238.294C349.735 237.78 348.476 236.734 347.696 235.354C346.915 233.974 346.669 232.355 347.003 230.806Z" fill="#FFB8B8"/>
<path d="M429.505 149.786C438.197 149.786 445.243 142.743 445.243 134.055C445.243 125.367 438.197 118.324 429.505 118.324C420.813 118.324 413.767 125.367 413.767 134.055C413.767 142.743 420.813 149.786 429.505 149.786Z" fill="#FFB8B8"/>
<path d="M411.016 350.586L403.161 350.586L399.423 320.298L411.018 320.299L411.016 350.586Z" fill="#FFB8B8"/>
<path d="M413.02 358.198L387.689 358.197V357.877C387.689 356.583 387.944 355.301 388.44 354.105C388.935 352.91 389.662 351.823 390.577 350.908C391.493 349.993 392.58 349.267 393.776 348.772C394.972 348.277 396.254 348.022 397.549 348.022H397.549L413.02 348.023L413.02 358.198Z" fill="#2F2E41"/>
<path d="M434.725 358.912L426.869 358.912L425.781 329.348L434.727 328.625L434.725 358.912Z" fill="#FFB8B8"/>
<path d="M436.728 366.524L411.398 366.523V366.203C411.398 364.909 411.653 363.627 412.149 362.432C412.644 361.236 413.37 360.15 414.286 359.234C415.201 358.319 416.288 357.593 417.484 357.098C418.681 356.603 419.963 356.348 421.257 356.348H421.258L436.729 356.349L436.728 366.524Z" fill="#2F2E41"/>
<path d="M432.49 353.385L426.373 352.665C425.679 352.582 425.039 352.251 424.571 351.732C424.103 351.213 423.838 350.543 423.827 349.845L422.68 270.207C422.677 269.981 422.595 269.765 422.447 269.594C422.3 269.423 422.098 269.31 421.875 269.273C421.653 269.236 421.424 269.279 421.23 269.394C421.036 269.509 420.889 269.688 420.813 269.9L412.326 293.854L412.933 338.754C412.943 339.495 412.667 340.211 412.163 340.754C411.658 341.297 410.963 341.625 410.223 341.669L402.237 342.008C401.506 342.05 400.787 341.814 400.223 341.348C399.659 340.882 399.293 340.22 399.197 339.495L395.025 288.703L395.023 288.672L401.352 235.627L448.886 239.064L435.691 350.861C435.607 351.561 435.27 352.207 434.743 352.676C434.216 353.144 433.535 353.404 432.829 353.405C432.716 353.405 432.603 353.399 432.49 353.385Z" fill="#2F2E41"/>
<path d="M401.555 240.329C401.128 240.101 400.766 239.77 400.502 239.364C400.238 238.959 400.081 238.494 400.046 238.012C400.046 238.012 404.32 211.441 405.887 210.943L402.459 182.529C402.049 179.063 402.335 175.551 403.301 172.197C404.268 168.843 405.894 165.717 408.086 163C410.196 160.365 412.819 158.184 415.796 156.59C418.773 154.995 422.043 154.021 425.407 153.724C425.886 153.681 426.363 153.648 426.836 153.625C430.892 153.408 434.94 154.173 438.636 155.855C442.333 157.537 445.568 160.086 448.068 163.285C450.661 166.512 452.435 170.318 453.241 174.377C454.046 178.437 453.858 182.631 452.694 186.603L450.772 193.289V240.017C450.77 240.473 450.661 240.922 450.453 241.329C450.246 241.735 449.947 242.087 449.579 242.357C443.593 246.748 436.829 248.3 430.256 248.3C417.818 248.3 406.062 242.741 401.555 240.329Z" fill="#106964"/>
<path d="M364.653 231.778L356.385 225.599C356.061 225.356 355.791 225.048 355.594 224.695C355.397 224.341 355.276 223.95 355.24 223.547C355.204 223.144 355.253 222.738 355.385 222.355C355.516 221.972 355.727 221.621 356.003 221.325L405.255 168.501C406.836 166.82 408.967 165.762 411.263 165.518C413.558 165.274 415.864 165.861 417.764 167.172L417.764 167.172C418.921 167.978 419.886 169.03 420.59 170.252C421.295 171.473 421.721 172.835 421.839 174.24C421.956 175.646 421.763 177.059 421.272 178.381C420.781 179.703 420.004 180.9 418.997 181.888L368.399 231.527C367.955 231.967 367.378 232.25 366.758 232.332C366.137 232.414 365.507 232.291 364.963 231.981C364.856 231.92 364.752 231.852 364.653 231.778Z" fill="#106964"/>
<path d="M427.928 224.784C428.29 223.914 428.838 223.135 429.533 222.5C430.229 221.865 431.055 221.39 431.954 221.108C432.853 220.827 433.803 220.746 434.736 220.871C435.67 220.997 436.565 221.325 437.358 221.833L455.355 207.683L456.348 219.535L439.105 231.156C438.162 232.43 436.785 233.315 435.233 233.643C433.681 233.97 432.063 233.717 430.685 232.932C429.308 232.146 428.266 230.883 427.758 229.382C427.25 227.88 427.311 226.244 427.928 224.784Z" fill="#FFB8B8"/>
<path d="M444.037 230.308C443.561 230.16 443.131 229.89 442.791 229.525C442.452 229.16 442.213 228.713 442.1 228.227L440.282 220.595C440.149 220.053 440.178 219.484 440.366 218.959C440.554 218.434 440.893 217.975 441.339 217.641L453.571 204.419L435.579 176.688C434.217 175.012 433.45 172.932 433.396 170.774C433.343 168.615 434.006 166.5 435.283 164.758C436.301 163.371 437.668 162.277 439.245 161.587C440.822 160.897 442.554 160.637 444.264 160.831C445.975 161.026 447.603 161.669 448.985 162.696C450.366 163.722 451.452 165.095 452.132 166.676L468.859 199.22C470.522 202.453 470.936 206.185 470.024 209.704C469.112 213.223 466.936 216.284 463.911 218.303L446.818 229.717C446.294 230.185 445.617 230.444 444.914 230.445C444.617 230.444 444.321 230.398 444.037 230.308Z" fill="#106964"/>
<path d="M441.167 148.118C440.796 148.34 440.379 148.475 439.948 148.51C439.517 148.545 439.083 148.481 438.681 148.322C438.279 148.164 437.918 147.914 437.628 147.594C437.337 147.274 437.125 146.891 437.006 146.475L436.996 146.436C436.676 145.127 436.929 143.757 437.011 142.412C437.094 141.067 436.955 139.591 436.033 138.607C434.316 136.773 431.283 137.767 428.811 137.314C427.363 136.999 426.079 136.167 425.2 134.975C424.321 133.782 423.907 132.31 424.035 130.834C424.069 130.554 424.123 130.274 424.183 129.994C424.334 129.285 424.318 128.551 424.137 127.849C423.955 127.146 423.614 126.496 423.139 125.948C422.664 125.4 422.068 124.969 421.399 124.69C420.729 124.411 420.004 124.291 419.28 124.339C416.786 124.495 414.096 125.265 412.021 123.429C411.26 122.704 410.73 121.771 410.496 120.747C410.262 119.723 410.335 118.653 410.706 117.67C411.866 114.262 415.189 112.463 418.481 111.467C422.553 110.267 426.841 109.989 431.034 110.654C435.227 111.319 439.219 112.909 442.719 115.309C444.81 116.765 446.765 118.599 447.665 120.981C448.566 123.364 448.154 126.378 446.16 127.965C447.721 129.599 448.824 131.614 449.36 133.808C449.896 136.003 449.846 138.299 449.214 140.468C448.242 143.658 443.54 146.736 441.167 148.118Z" fill="#2F2E41"/>
<path d="M540 366.36C540 366.529 539.932 366.692 539.812 366.812C539.692 366.932 539.529 367 539.359 367H295.224C295.054 367 294.891 366.933 294.771 366.813C294.651 366.692 294.583 366.53 294.583 366.36C294.583 366.19 294.651 366.027 294.771 365.907C294.891 365.787 295.054 365.719 295.224 365.719H539.359C539.529 365.72 539.692 365.787 539.812 365.907C539.932 366.027 540 366.19 540 366.36Z" fill="#3F3D56"/>
</g>
<defs>
<clipPath id="clip0">
<rect width="540" height="367" fill="white"/>
</clipPath>
</defs>
</svg>
