<svg width="346" height="225" viewBox="0 0 346 225" fill="none" xmlns="http://www.w3.org/2000/svg">
<g clip-path="url(#clip0)">
<path d="M346 105.637C346 114.588 342.627 123.21 336.555 129.779C330.482 136.348 322.157 140.379 313.245 141.068C312.945 141.09 312.64 141.113 312.335 141.127V107.4C312.335 107.063 312.26 106.73 312.116 106.425C311.971 106.121 311.76 105.853 311.498 105.641C311.468 105.61 311.434 105.583 311.398 105.559C311.365 105.532 311.33 105.508 311.293 105.486C310.974 105.28 310.608 105.158 310.228 105.13C309.849 105.102 309.469 105.17 309.123 105.327L308.746 104.498C309.158 104.309 309.607 104.212 310.06 104.211L284.147 81.8551C284.348 81.6273 284.557 81.404 284.766 81.1808C289.651 76.0237 295.969 72.4522 302.902 70.9278C309.835 69.4034 317.065 69.9961 323.658 72.6293C330.251 75.2625 335.905 79.8153 339.887 85.6993C343.87 91.5833 345.999 98.5282 346 105.637Z" fill="#F2F2F2"/>
<path d="M8.99756 129.867C8.8687 129.208 8.88576 128.528 9.04754 127.876C9.20932 127.224 9.51189 126.616 9.93393 126.094C10.356 125.571 10.8872 125.148 11.4903 124.854C12.0933 124.559 12.7535 124.401 13.4243 124.39L33.879 100.005L38.9856 106.544L18.1394 129.238C18.0835 130.367 17.6158 131.437 16.8249 132.245C16.0339 133.052 14.9746 133.541 13.8478 133.619C12.721 133.696 11.6048 133.357 10.7109 132.666C9.81698 131.975 9.20737 130.979 8.99759 129.867H8.99756Z" fill="#FFB8B8"/>
<path d="M106.13 99.8545C105.987 100.062 105.86 100.28 105.751 100.507L83.4165 103.705L80.025 99.3927L72.8579 103.668L79.595 114.187L106.834 106.146C107.553 106.797 108.453 107.214 109.414 107.341C110.375 107.468 111.352 107.299 112.215 106.857C113.078 106.414 113.786 105.719 114.245 104.863C114.704 104.008 114.892 103.033 114.784 102.068C114.676 101.103 114.277 100.194 113.64 99.4614C113.004 98.7289 112.16 98.208 111.22 97.9677C110.281 97.7274 109.29 97.7792 108.381 98.1163C107.472 98.4533 106.687 99.0596 106.13 99.8545Z" fill="#FFB8B8"/>
<path d="M67.9785 181.327L71.931 185.268L88.9909 171.877L83.1578 166.061L67.9785 181.327Z" fill="#FFB8B8"/>
<path d="M75.8989 196.544L63.4776 184.158L68.2561 179.352L75.8783 186.952C76.5086 187.58 77.009 188.327 77.3512 189.149C77.6933 189.971 77.8703 190.853 77.8722 191.744C77.8742 192.634 77.7009 193.517 77.3623 194.34C77.0237 195.164 76.5264 195.912 75.8989 196.544L75.8989 196.544Z" fill="#2F2E41"/>
<path d="M46.9699 219.127H52.5474L55.2005 197.584H46.969L46.9699 219.127Z" fill="#FFB8B8"/>
<path d="M63.3035 224.313L45.7746 224.314L45.7743 217.532L56.5306 217.531C57.42 217.531 58.3007 217.707 59.1224 218.047C59.9441 218.388 60.6907 218.888 61.3196 219.517C61.9485 220.147 62.4474 220.895 62.7878 221.718C63.1282 222.541 63.3034 223.423 63.3035 224.313Z" fill="#2F2E41"/>
<path d="M45.7575 202.488L39.4046 155.569C38.4104 148.478 38.7189 141.265 40.3151 134.285C41.6187 128.676 43.3799 124.791 45.5498 122.738C45.8923 122.416 46.3307 122.216 46.7978 122.167L67.7731 119.979C68.1771 119.938 68.5845 120.012 68.9478 120.194C69.3111 120.376 69.6153 120.657 69.8249 121.006L70.5144 122.157C70.5981 122.296 70.6656 122.445 70.7156 122.6L75.1503 136.368C75.2165 136.576 75.3233 136.769 75.4646 136.935C75.6058 137.101 75.7787 137.238 75.9731 137.337C82.9554 140.907 105.636 152.958 104.338 158.157C103.119 163.042 91.7005 170.963 88.23 173.274C87.8766 173.511 87.4604 173.636 87.0353 173.633C86.6102 173.629 86.1959 173.498 85.8461 173.256L80.0852 169.309C79.804 169.116 79.5729 168.859 79.4113 168.559C79.2497 168.258 79.1622 167.923 79.1563 167.582C79.1503 167.241 79.226 166.903 79.3771 166.597C79.5281 166.291 79.7501 166.026 80.0244 165.823L83.9971 162.892C84.2403 162.712 84.4299 162.47 84.5457 162.191C84.6615 161.911 84.699 161.606 84.6542 161.306C84.6095 161.007 84.4841 160.726 84.2916 160.493C84.0991 160.26 83.8468 160.084 83.5618 159.984L62.2262 152.487C61.9867 152.402 61.731 152.374 61.4789 152.405C61.2268 152.435 60.985 152.523 60.7721 152.661C60.5592 152.799 60.3808 152.985 60.2506 153.203C60.1205 153.422 60.0421 153.667 60.0214 153.92L56.0875 202.07C56.0441 202.586 55.8155 203.069 55.4439 203.43C55.0723 203.79 54.5829 204.004 54.0663 204.031L47.9796 204.336C47.9425 204.338 47.9058 204.338 47.8691 204.338C47.3525 204.34 46.8529 204.154 46.4642 203.813C46.0754 203.472 45.8241 203.001 45.7575 202.488Z" fill="#2F2E41"/>
<path d="M55.3772 81.1328C61.5482 81.1328 66.5508 76.1231 66.5508 69.9432C66.5508 63.7633 61.5482 58.7535 55.3772 58.7535C49.2062 58.7535 44.2036 63.7633 44.2036 69.9432C44.2036 76.1231 49.2062 81.1328 55.3772 81.1328Z" fill="#FFB8B8"/>
<path d="M44.9262 120.821L36.7014 90.7686L36.8423 90.6735C37.0189 90.5543 54.7468 78.8313 75.5026 88.2784L75.8789 88.4946L71.0053 119.687C70.8989 120.399 70.5479 121.051 70.0127 121.532C69.4775 122.012 68.7917 122.291 68.0735 122.319L48.0188 123.091C47.9784 123.093 47.9381 123.094 47.898 123.094C47.222 123.095 46.5643 122.873 46.027 122.463C45.4897 122.052 45.1027 121.475 44.9262 120.821Z" fill="#CCCCCC"/>
<path d="M36.3886 110.333L29.5385 102.445C29.2086 102.066 29.0229 101.582 29.014 101.079C29.0051 100.577 29.1738 100.087 29.4901 99.6966L36.6511 90.8378L42.1482 92.3392L45.0626 102.554L39.7487 110.157C39.5633 110.423 39.3193 110.644 39.0355 110.802C38.7517 110.959 38.4356 111.049 38.1114 111.066C38.0731 111.067 38.035 111.068 37.9969 111.068C37.6918 111.069 37.3901 111.004 37.1126 110.877C36.835 110.75 36.588 110.565 36.3886 110.333Z" fill="#CCCCCC"/>
<path d="M74.2685 108.69C73.9444 108.674 73.6282 108.584 73.3444 108.426C73.0606 108.268 72.8166 108.048 72.6313 107.781L67.3174 100.179L69.8733 89.4257L74.9347 88.0433L75.8791 88.4947L82.8898 97.321C83.2062 97.7114 83.3748 98.2012 83.3659 98.7039C83.3571 99.2067 83.1713 99.6901 82.8414 100.069L75.9913 107.958C75.7919 108.189 75.5449 108.374 75.2674 108.501C74.9898 108.628 74.6882 108.693 74.3831 108.693C74.3451 108.693 74.3067 108.692 74.2685 108.69Z" fill="#CCCCCC"/>
<path d="M312.335 105.167C312.339 105.281 312.3 105.392 312.226 105.477C312.147 105.569 312.036 105.626 311.916 105.635C311.795 105.645 311.676 105.606 311.585 105.527L310.06 104.211L284.148 81.8551L211.468 19.1438C211.053 18.7883 210.525 18.5934 209.979 18.5942C209.434 18.595 208.906 18.7916 208.493 19.1483L110.618 104.302L109.736 105.067C109.702 105.097 109.664 105.122 109.622 105.14C109.549 105.172 109.469 105.185 109.39 105.176C109.276 105.164 109.171 105.111 109.094 105.026C109.055 104.981 109.025 104.929 109.005 104.873C108.986 104.816 108.978 104.756 108.982 104.696C108.985 104.637 109.001 104.578 109.027 104.525C109.054 104.471 109.09 104.423 109.135 104.384L109.258 104.274L207.896 18.4604C208.476 17.9618 209.214 17.687 209.978 17.6853C210.742 17.6836 211.482 17.9553 212.064 18.4513L284.766 81.1808L312.176 104.835C312.224 104.876 312.263 104.927 312.29 104.984C312.317 105.042 312.333 105.104 312.335 105.167Z" fill="#3F3D56"/>
<path d="M257.075 118.621L255.878 115.322L251.756 103.933L242.876 79.4087L232.949 51.9961L215.048 2.55144C214.696 1.58723 213.978 0.801807 213.049 0.367174C212.12 -0.0674594 211.058 -0.115881 210.094 0.232513L106.592 37.8137C105.629 38.1654 104.844 38.8851 104.41 39.8151C103.976 40.7451 103.928 41.8096 104.277 42.7751L129.657 112.871L130.089 114.07L156.73 126.161L164.218 129.559L165.433 130.111L197.137 144.503L198.366 144.056L219.16 136.507L250.528 125.118L254.754 123.582C255.718 123.231 256.503 122.512 256.938 121.582C257.373 120.652 257.422 119.587 257.075 118.621Z" fill="#E6E6E6"/>
<path d="M213.674 60.233C213.158 58.8139 212.101 57.6578 210.734 57.0181C209.368 56.3785 207.804 56.3074 206.386 56.8206L165.433 71.6955L145.657 78.8755C144.955 79.1299 144.309 79.5204 143.757 80.0248C143.205 80.5292 142.758 81.1376 142.441 81.8151C142.124 82.4927 141.944 83.2262 141.91 83.9737C141.876 84.7212 141.99 85.4679 142.245 86.1714C142.499 86.8748 142.89 87.5211 143.394 88.0732C143.898 88.6254 144.506 89.0726 145.183 89.3894C145.86 89.7061 146.593 89.8861 147.339 89.9191C148.085 89.9521 148.831 89.8375 149.533 89.5818L165.433 83.8095L210.267 67.5315C211.684 67.0144 212.838 65.9557 213.477 64.5876C214.116 63.2194 214.186 61.6534 213.674 60.233Z" fill="white"/>
<path d="M220.885 80.1512C220.368 78.7321 219.311 77.576 217.945 76.9364C216.579 76.2967 215.015 76.2257 213.597 76.7388L206.659 79.2582L165.433 94.2288L152.868 98.7892C151.451 99.3049 150.296 100.363 149.658 101.731C149.02 103.098 148.949 104.664 149.463 106.084C149.977 107.503 151.032 108.66 152.397 109.301C153.763 109.941 155.326 110.013 156.744 109.5L165.433 106.343L217.477 87.4451C217.595 87.4041 217.709 87.354 217.823 87.3039C219.144 86.7233 220.196 85.6612 220.764 84.3331C221.333 83.0049 221.376 81.5099 220.885 80.1512Z" fill="white"/>
<path d="M228.173 100.279C227.657 98.8603 226.601 97.7041 225.236 97.0644C223.87 96.4247 222.307 96.3536 220.889 96.8667L201.432 103.933L186.369 109.404L165.433 117.004L160.156 118.922C158.936 119.367 157.905 120.215 157.232 121.327C156.56 122.439 156.286 123.747 156.457 125.036C156.509 125.419 156.601 125.796 156.73 126.161L164.218 129.559L165.433 129.118H165.442L203.433 115.322L224.765 107.578C226.183 107.062 227.338 106.003 227.977 104.634C228.616 103.266 228.686 101.699 228.173 100.279H228.173Z" fill="white"/>
<path d="M185.532 40.652C185.016 39.233 183.958 38.0769 182.592 37.4372C181.226 36.7975 179.662 36.7265 178.244 37.2397L154.724 45.7774C153.307 46.2931 152.152 47.3511 151.514 48.7189C150.875 50.0866 150.805 51.6523 151.319 53.0718C151.833 54.4912 152.888 55.6484 154.253 56.289C155.619 56.9296 157.182 57.0013 158.6 56.4882L166.043 53.7865L170.969 51.9961L182.125 47.9459C183.541 47.4299 184.696 46.3721 185.335 45.0047C185.973 43.6372 186.044 42.0718 185.532 40.652Z" fill="white"/>
<path d="M279.393 51.9961H169.3C168.65 51.9967 168.012 52.1611 167.442 52.474C166.873 52.7869 166.392 53.2383 166.043 53.7866C165.643 54.4073 165.432 55.1302 165.433 55.8686V130.111L197.137 144.503L201.605 146.53L208.66 149.733C209.074 149.92 209.522 150.016 209.975 150.016C210.429 150.016 210.877 149.92 211.29 149.733L218.346 146.53L240.428 136.507L261.01 127.163L283.26 117.067V55.8686C283.26 54.8417 282.852 53.8571 282.127 53.131C281.402 52.405 280.419 51.9967 279.393 51.9961Z" fill="#106964"/>
<path d="M256.647 103.933H192.046C190.578 103.934 189.166 104.504 188.108 105.524C187.049 106.544 186.426 107.934 186.369 109.404C186.361 109.479 186.358 109.553 186.36 109.628C186.362 111.137 186.962 112.585 188.028 113.652C189.094 114.72 190.539 115.32 192.046 115.322H256.647C258.155 115.322 259.601 114.722 260.668 113.654C261.734 112.586 262.333 111.138 262.333 109.628C262.333 108.117 261.734 106.669 260.668 105.601C259.601 104.533 258.155 103.933 256.647 103.933Z" fill="white"/>
<path d="M260.327 126.475C259.302 125.597 257.996 125.115 256.647 125.118H192.047C190.538 125.118 189.092 125.717 188.025 126.785C186.959 127.853 186.36 129.302 186.36 130.812C186.36 132.323 186.959 133.771 188.025 134.839C189.092 135.907 190.538 136.507 192.047 136.507H240.429L261.01 127.163C260.802 126.915 260.574 126.685 260.327 126.475Z" fill="white"/>
<path d="M201.605 146.53L208.661 149.733C209.074 149.92 209.522 150.016 209.975 150.016C210.429 150.016 210.877 149.92 211.29 149.733L218.346 146.53H201.605Z" fill="white"/>
<path d="M242.198 79.6547C241.798 78.5584 241.071 77.6117 240.116 76.9427C239.16 76.2737 238.023 75.9147 236.857 75.9143H211.836C210.744 75.9153 209.675 76.2311 208.757 76.8241C207.839 77.4171 207.11 78.2621 206.659 79.2583C206.322 79.996 206.148 80.7979 206.149 81.6091C206.152 83.1188 206.751 84.5661 207.817 85.6336C208.883 86.7011 210.329 87.3018 211.836 87.3039H236.857C237.772 87.304 238.673 87.0831 239.485 86.6598C240.296 86.2366 240.994 85.6235 241.518 84.8727C242.042 84.1219 242.378 83.2556 242.496 82.3472C242.615 81.4387 242.512 80.5151 242.198 79.6547Z" fill="white"/>
<path d="M238.222 136.507L216.14 146.53L210.913 148.904C210.618 149.036 210.299 149.105 209.976 149.105C209.652 149.105 209.333 149.036 209.038 148.904L203.811 146.53H201.605L208.661 149.733C209.074 149.92 209.522 150.016 209.976 150.016C210.429 150.016 210.877 149.92 211.29 149.733L218.346 146.53L240.429 136.507H238.222ZM238.222 136.507L216.14 146.53L210.913 148.904C210.618 149.036 210.299 149.105 209.976 149.105C209.652 149.105 209.333 149.036 209.038 148.904L203.811 146.53H201.605L208.661 149.733C209.074 149.92 209.522 150.016 209.976 150.016C210.429 150.016 210.877 149.92 211.29 149.733L218.346 146.53L240.429 136.507H238.222ZM238.222 136.507L216.14 146.53L210.913 148.904C210.618 149.036 210.299 149.105 209.976 149.105C209.652 149.105 209.333 149.036 209.038 148.904L203.811 146.53H201.605L208.661 149.733C209.074 149.92 209.522 150.016 209.976 150.016C210.429 150.016 210.877 149.92 211.29 149.733L218.346 146.53L240.429 136.507H238.222ZM312.335 105.167C312.167 105 311.983 104.851 311.785 104.721C311.338 104.431 310.825 104.258 310.294 104.219C309.763 104.18 309.23 104.276 308.746 104.498L260.327 126.475L238.222 136.507L216.14 146.53L210.913 148.904C210.618 149.036 210.299 149.105 209.976 149.105C209.652 149.105 209.333 149.036 209.038 148.904L203.811 146.53L198.366 144.056L165.442 129.117L165.433 129.113L156.457 125.035L129.657 112.871L111.205 104.498C111.018 104.411 110.821 104.345 110.619 104.302C110.173 104.19 109.708 104.181 109.258 104.274C108.539 104.422 107.892 104.813 107.427 105.383C106.962 105.952 106.708 106.664 106.706 107.4V221.811C106.707 222.656 107.043 223.467 107.64 224.065C108.237 224.663 109.046 224.999 109.891 225H310.061C310.905 224.999 311.714 224.663 312.311 224.065C312.908 223.467 313.244 222.656 313.245 221.811V107.4C313.247 106.565 312.92 105.763 312.335 105.167V105.167ZM312.335 221.811C312.335 222.415 312.095 222.994 311.669 223.421C311.242 223.848 310.664 224.089 310.061 224.089H109.891C109.287 224.089 108.709 223.848 108.282 223.421C107.856 222.994 107.616 222.415 107.616 221.811V107.4C107.616 107.019 107.712 106.644 107.894 106.31C108.076 105.976 108.338 105.693 108.658 105.486C108.882 105.342 109.13 105.237 109.39 105.177C109.467 105.16 109.544 105.148 109.622 105.14C109.711 105.127 109.801 105.121 109.891 105.122C110.214 105.122 110.534 105.192 110.828 105.327L130.089 114.07L156.73 126.161L164.218 129.559L165.433 130.111L197.137 144.503L201.605 146.53L208.661 149.733C209.074 149.92 209.522 150.016 209.976 150.016C210.429 150.016 210.877 149.92 211.29 149.733L218.346 146.53L240.429 136.507L261.01 127.163L309.123 105.327C309.47 105.17 309.85 105.102 310.229 105.13C310.608 105.158 310.974 105.28 311.293 105.486C311.33 105.508 311.365 105.532 311.398 105.559C311.434 105.583 311.468 105.61 311.498 105.641C311.76 105.853 311.971 106.121 312.116 106.425C312.26 106.73 312.335 107.063 312.335 107.4L312.335 221.811ZM238.222 136.507L216.14 146.53L210.913 148.904C210.618 149.036 210.299 149.105 209.976 149.105C209.652 149.105 209.333 149.036 209.038 148.904L203.811 146.53H201.605L208.661 149.733C209.074 149.92 209.522 150.016 209.976 150.016C210.429 150.016 210.877 149.92 211.29 149.733L218.346 146.53L240.429 136.507H238.222ZM238.222 136.507L216.14 146.53L210.913 148.904C210.618 149.036 210.299 149.105 209.976 149.105C209.652 149.105 209.333 149.036 209.038 148.904L203.811 146.53H201.605L208.661 149.733C209.074 149.92 209.522 150.016 209.976 150.016C210.429 150.016 210.877 149.92 211.29 149.733L218.346 146.53L240.429 136.507H238.222ZM164.218 129.559L165.433 130.111V129.117L164.218 129.559ZM238.222 136.507L216.14 146.53L210.913 148.904C210.618 149.036 210.299 149.105 209.976 149.105C209.652 149.105 209.333 149.036 209.038 148.904L203.811 146.53H201.605L208.661 149.733C209.074 149.92 209.522 150.016 209.976 150.016C210.429 150.016 210.877 149.92 211.29 149.733L218.346 146.53L240.429 136.507H238.222Z" fill="#3F3D56"/>
<path d="M79.8525 225H28.4452C28.3245 225 28.2088 224.952 28.1235 224.867C28.0382 224.781 27.9902 224.665 27.9902 224.544C27.9902 224.424 28.0382 224.308 28.1235 224.222C28.2088 224.137 28.3245 224.089 28.4452 224.089H79.8525C79.9731 224.089 80.0888 224.137 80.1741 224.222C80.2594 224.308 80.3074 224.424 80.3074 224.544C80.3074 224.665 80.2594 224.781 80.1741 224.867C80.0888 224.952 79.9731 225 79.8525 225Z" fill="#3F3D56"/>
<path d="M51.1289 78.1263C50.2896 77.6998 49.5917 77.0388 49.1198 76.2234C48.6478 75.4079 48.422 74.473 48.4696 73.5317C48.5173 72.5903 48.8363 71.6831 49.3882 70.9196C49.9401 70.1561 50.7011 69.5692 51.5792 69.2298C54.9509 67.9268 58.7308 70.5861 62.2652 69.83C65.7878 69.0765 67.8256 64.859 66.9848 61.3513C66.144 57.8436 63.0836 55.2016 59.709 53.9398C57.505 53.1178 55.1447 52.8026 52.8026 53.0176C50.4606 53.2326 48.1968 53.9722 46.1788 55.1818C44.1816 56.4268 42.5182 58.1414 41.3333 60.1767C40.1485 62.212 39.4779 64.5063 39.38 66.8601C39.3341 69.2161 39.9089 71.5426 41.0465 73.6053C42.184 75.6681 43.8442 77.3942 45.8599 78.61C46.7582 79.1285 47.8037 79.5449 48.814 79.3114C49.6434 79.0416 50.4248 78.6416 51.1289 78.1263Z" fill="#2F2E41"/>
<path d="M47.5078 54.909C44.5346 50.9598 40.5211 47.7155 35.8508 46.107C31.1805 44.4985 25.8436 44.6276 21.4574 46.9007C17.0711 49.1738 13.8 53.6884 13.4586 58.6224C12.8903 66.8342 19.897 73.8145 20.6161 82.0144C20.844 84.6135 20.4228 87.2286 19.3903 89.6241C18.3578 92.0195 16.7465 94.1202 14.7015 95.7368C12.6565 97.3535 10.2421 98.4353 7.6757 98.8848C5.1093 99.3344 2.47154 99.1376 0 98.3122C1.76038 99.7633 3.80139 100.834 5.99483 101.458C8.18827 102.081 10.4867 102.243 12.7459 101.935C15.0013 101.596 17.1531 100.758 19.0453 99.4832C20.9375 98.2081 22.5226 96.5273 23.6857 94.5627C25.2626 91.8189 25.9102 88.6318 26.1617 85.4761C26.5567 80.4863 26.0217 75.4665 24.5841 70.6726C23.7982 68.057 22.7323 65.3654 23.2307 62.6799C23.5148 61.2831 24.2025 60.0007 25.2082 58.992C26.214 57.9833 27.4936 57.2928 28.888 57.0062C31.1414 56.5834 33.4454 57.2721 35.5971 58.0648C37.7487 58.8574 39.9181 59.7747 42.2102 59.8271C44.5022 59.8796 46.9987 58.829 47.8845 56.7113L47.5078 54.909Z" fill="#2F2E41"/>
</g>
<defs>
<clipPath id="clip0">
<rect width="346" height="225" fill="white"/>
</clipPath>
</defs>
</svg>
