<svg width="1448" height="1533" viewBox="0 0 1448 1533" fill="none" xmlns="http://www.w3.org/2000/svg">
<path d="M323.512 111.575C211.455 244.306 239.608 513.998 163.716 699.159C137.297 763.588 44.1521 904.483 23.5262 987.009C-17.3635 1150.61 -11.2761 1345.5 92.6405 1400.3C204.89 1459.49 446.545 1474.9 446.545 1474.9C446.545 1474.9 881.643 1500.94 911.229 1500.94L1130.78 1532.86C1211.15 1534.01 1300.44 1529.86 1358.23 1442.17C1398.06 1381.78 1414.23 1293.6 1427.96 1209.42C1444.83 1106 1460.12 993.672 1433.87 895.161C1403.89 782.453 1328.08 718.582 1280.98 621.327C1204.54 463.759 1206.3 225.436 1108.96 99.6468C1063.52 40.9382 1003.56 17.9152 945.127 6.40371C834.975 -15.3286 730.636 25.6942 622.462 19.9733C529.997 15.0897 400.22 20.7039 323.512 111.575Z" fill="url(#paint0_linear)"/>
<defs>
<linearGradient id="paint0_linear" x1="281.509" y1="1616.85" x2="1270.84" y2="287.885" gradientUnits="userSpaceOnUse">
<stop stop-color="#106964"/>
<stop offset="1" stop-color="#34D1C9"/>
</linearGradient>
</defs>
</svg>
