<svg width="802" height="1395" viewBox="0 0 802 1395" fill="none" xmlns="http://www.w3.org/2000/svg">
<path d="M323.512 -26.4251C211.455 106.306 239.608 375.998 163.716 561.159C137.297 625.588 44.1521 766.483 23.5262 849.009C-17.3635 1012.61 -11.2761 1207.5 92.6405 1262.3C204.89 1321.49 446.545 1336.9 446.545 1336.9C446.545 1336.9 881.643 1362.94 911.229 1362.94L1130.78 1394.86C1211.15 1396.01 1300.44 1391.86 1358.23 1304.17C1398.06 1243.78 1414.23 1155.6 1427.96 1071.42C1444.83 967.996 1460.12 855.672 1433.87 757.161C1403.89 644.453 1328.08 580.582 1280.98 483.327C1204.54 325.759 1206.3 87.4361 1108.96 -38.3532C1063.52 -97.0618 1003.56 -120.085 945.127 -131.596C834.975 -153.329 730.636 -112.306 622.462 -118.027C529.997 -122.91 400.22 -117.296 323.512 -26.4251Z" fill="url(#paint0_linear)"/>
<defs>
<linearGradient id="paint0_linear" x1="281.509" y1="1478.85" x2="1270.84" y2="149.885" gradientUnits="userSpaceOnUse">
<stop stop-color="#106964"/>
<stop offset="1" stop-color="#34D1C9"/>
</linearGradient>
</defs>
</svg>
