<svg width="699" height="435" viewBox="0 0 699 435" fill="none" xmlns="http://www.w3.org/2000/svg">
<path d="M154.336 45.5896C102.217 83.0366 117.678 155.62 83.1238 206.757C71.0949 224.551 28.0103 263.948 18.8706 286.559C0.751772 331.384 5.16189 384.03 54.8851 397.433C108.595 411.911 223.35 412.771 223.35 412.771C223.35 412.771 429.951 413.858 443.986 413.452L548.383 419.081C586.517 418.292 628.845 415.946 655.572 391.427C673.992 374.544 680.978 350.463 686.833 327.5C694.027 299.285 700.402 268.685 687.182 242.391C672.079 212.307 635.615 196.064 612.513 170.396C575.023 128.811 573.994 64.3052 526.837 31.6045C504.822 16.3425 476.198 10.9346 448.391 8.62024C395.969 4.24897 346.793 16.7773 295.434 16.711C251.533 16.6562 190.015 19.9526 154.336 45.5896Z" fill="url(#paint0_linear)"/>
<defs>
<linearGradient id="paint0_linear" x1="146.17" y1="453.436" x2="333.538" y2="-25.8451" gradientUnits="userSpaceOnUse">
<stop stop-color="#106964"/>
<stop offset="1" stop-color="#34D1C9"/>
</linearGradient>
</defs>
</svg>
