<svg width="429" height="314" viewBox="0 0 429 314" fill="none" xmlns="http://www.w3.org/2000/svg">
<g clip-path="url(#clip0)">
<path d="M19.0254 305.043C32.3973 314.154 49.7263 314.612 66.4767 313.492C68.8156 313.336 71.138 313.153 73.4389 312.956C73.4528 312.952 73.4711 312.953 73.4852 312.95C73.5958 312.94 73.7066 312.93 73.8124 312.924C74.2873 312.882 74.7624 312.84 75.2329 312.798L75.1217 312.998L74.7729 313.621C74.8983 313.413 75.0235 313.209 75.1489 313C75.1858 312.938 75.2271 312.875 75.2637 312.813C79.603 305.671 83.9068 298.267 85.0046 290.111C86.1393 281.647 82.9503 272.062 75.0734 267.901C74.0404 267.357 72.9464 266.924 71.8118 266.609C71.3407 266.474 70.8633 266.364 70.3804 266.267C67.4263 265.646 64.3507 265.781 61.47 266.658C58.5893 267.534 56.0074 269.12 53.9898 271.254C51.9722 273.387 50.5917 275.99 49.9902 278.795C49.3888 281.6 49.5881 284.506 50.5677 287.214C43.8896 280.737 45.1354 270.23 47.439 261.449C49.7471 252.668 52.5412 242.897 47.8468 235.009C45.2372 230.619 40.6482 227.896 35.4981 226.798C35.3401 226.766 35.1824 226.734 35.024 226.706C28.8879 225.531 22.5088 226.588 17.1608 229.667C7.31343 235.536 2.25571 246.664 0.614188 257.565C-2.03061 275.106 3.82236 294.683 19.0254 305.043Z" fill="#F2F2F2"/>
<path d="M23.3427 276.923C23.7309 280.793 24.7136 284.588 26.2598 288.189C27.6848 291.375 29.6054 294.343 31.9581 296.992C36.7641 302.46 43.119 306.571 50.0206 309.31C55.2977 311.355 60.8269 312.76 66.4766 313.493C68.8155 313.336 71.138 313.153 73.4389 312.956C73.4528 312.952 73.471 312.953 73.4851 312.95C73.5957 312.94 73.7065 312.93 73.8123 312.924C74.2872 312.882 74.7623 312.84 75.2328 312.798L75.1217 312.998L74.7729 313.621C74.8982 313.413 75.0235 313.209 75.1488 313C75.1857 312.938 75.227 312.876 75.2637 312.813C71.0281 308.822 67.8657 303.928 66.0415 298.543C64.2173 293.157 63.7844 287.437 64.7791 281.861C65.82 276.324 68.2297 271.098 71.8117 266.609C71.3406 266.474 70.8632 266.364 70.3803 266.267C69.019 268.027 67.8249 269.898 66.8119 271.857C63.1772 278.844 62.0176 286.752 63.5048 294.411C64.8874 301.342 68.3319 307.755 73.4339 312.899C72.9872 312.869 72.5361 312.835 72.0947 312.797C63.7334 312.127 55.3891 310.427 47.8054 306.944C41.323 304.04 35.6951 299.672 31.4175 294.226C26.8245 288.235 24.8006 281.029 24.4529 273.704C24.0843 265.863 25.16 257.884 27.0521 250.258C28.984 242.44 31.9202 234.876 35.7951 227.733C35.8817 227.571 35.8992 227.383 35.8439 227.209C35.7887 227.036 35.6648 226.888 35.4981 226.798C35.3591 226.71 35.1887 226.677 35.024 226.706C34.9434 226.726 34.8687 226.763 34.8053 226.815C34.742 226.866 34.6918 226.93 34.6583 227.002C34.1803 227.885 33.7112 228.768 33.2599 229.661C29.5014 237.098 26.7343 244.948 25.0222 253.03C23.3601 260.827 22.4729 268.984 23.3427 276.923Z" fill="white"/>
<path d="M420.397 269.963H199.24C196.959 269.961 194.772 269.103 193.159 267.577C191.546 266.052 190.639 263.984 190.636 261.826V8.1372C190.639 5.97982 191.546 3.91151 193.159 2.38601C194.772 0.860517 196.959 0.00242865 199.24 0H420.397C422.678 0.00242865 424.864 0.860517 426.477 2.38601C428.09 3.91151 428.997 5.97982 429 8.1372V261.826C428.997 263.984 428.09 266.052 426.477 267.577C424.864 269.103 422.678 269.961 420.397 269.963ZM199.24 0.957317C197.227 0.959471 195.298 1.71661 193.875 3.06263C192.451 4.40865 191.651 6.23363 191.649 8.1372V261.826C191.651 263.73 192.451 265.555 193.875 266.901C195.298 268.247 197.227 269.004 199.24 269.006H420.397C422.409 269.004 424.339 268.247 425.762 266.901C427.185 265.555 427.985 263.73 427.988 261.826V8.1372C427.985 6.23363 427.185 4.40865 425.762 3.06263C424.339 1.71661 422.409 0.959471 420.397 0.957317H199.24Z" fill="#3F3D56"/>
<path d="M428.494 19.9076H191.143V20.8649H428.494V19.9076Z" fill="#3F3D56"/>
<path d="M202.783 14.3598C205.019 14.3598 206.831 12.6453 206.831 10.5305C206.831 8.41565 205.019 6.70123 202.783 6.70123C200.547 6.70123 198.734 8.41565 198.734 10.5305C198.734 12.6453 200.547 14.3598 202.783 14.3598Z" fill="#3F3D56"/>
<path d="M215.434 14.3598C217.67 14.3598 219.483 12.6453 219.483 10.5305C219.483 8.41565 217.67 6.70123 215.434 6.70123C213.198 6.70123 211.386 8.41565 211.386 10.5305C211.386 12.6453 213.198 14.3598 215.434 14.3598Z" fill="#3F3D56"/>
<path d="M228.086 14.3598C230.323 14.3598 232.135 12.6453 232.135 10.5305C232.135 8.41565 230.323 6.70123 228.086 6.70123C225.85 6.70123 224.038 8.41565 224.038 10.5305C224.038 12.6453 225.85 14.3598 228.086 14.3598Z" fill="#3F3D56"/>
<path d="M386.115 57.9176H228.218C226.473 57.9176 224.8 57.2621 223.566 56.0951C222.332 54.9281 221.639 53.3454 221.639 51.6951C221.639 50.0448 222.332 48.462 223.566 47.2951C224.8 46.1281 226.473 45.4725 228.218 45.4725H386.115C387.86 45.4725 389.533 46.1281 390.767 47.2951C392.001 48.462 392.694 50.0448 392.694 51.6951C392.694 53.3454 392.001 54.9281 390.767 56.0951C389.533 57.2621 387.86 57.9176 386.115 57.9176ZM228.218 46.4299C226.742 46.4299 225.326 46.9846 224.282 47.972C223.238 48.9594 222.651 50.2987 222.651 51.6951C222.651 53.0915 223.238 54.4308 224.282 55.4182C225.326 56.4056 226.742 56.9603 228.218 56.9603H386.115C387.591 56.9603 389.007 56.4056 390.051 55.4182C391.095 54.4308 391.682 53.0915 391.682 51.6951C391.682 50.2987 391.095 48.9594 390.051 47.972C389.007 46.9846 387.591 46.4299 386.115 46.4299H228.218Z" fill="#3F3D56"/>
<path d="M287.298 145.512H225.05C222.769 145.51 220.582 144.652 218.969 143.126C217.356 141.601 216.449 139.532 216.447 137.375V89.0305C216.449 86.8731 217.356 84.8048 218.969 83.2793C220.582 81.7538 222.769 80.8957 225.05 80.8933H287.298C289.579 80.8957 291.765 81.7538 293.378 83.2793C294.991 84.8048 295.898 86.8731 295.901 89.0305V137.375C295.898 139.532 294.991 141.601 293.378 143.126C291.765 144.652 289.579 145.51 287.298 145.512ZM225.05 81.8506C223.037 81.8528 221.108 82.6099 219.685 83.9559C218.261 85.302 217.461 87.1269 217.459 89.0305V137.375C217.461 139.279 218.261 141.104 219.685 142.45C221.108 143.796 223.037 144.553 225.05 144.555H287.298C289.31 144.553 291.24 143.796 292.663 142.45C294.086 141.104 294.887 139.279 294.889 137.375V89.0305C294.887 87.1269 294.086 85.302 292.663 83.9559C291.24 82.6099 289.31 81.8528 287.298 81.8506H225.05Z" fill="#3F3D56"/>
<path d="M394.587 83.2866H332.339C327.867 83.2866 324.242 86.7155 324.242 90.9452V139.29C324.242 143.519 327.867 146.948 332.339 146.948H394.587C399.059 146.948 402.684 143.519 402.684 139.29V90.9452C402.684 86.7155 399.059 83.2866 394.587 83.2866Z" fill="#F2F2F2"/>
<path d="M287.298 235.5H225.05C222.769 235.498 220.582 234.639 218.969 233.114C217.356 231.588 216.449 229.52 216.447 227.363V179.018C216.449 176.861 217.356 174.793 218.969 173.267C220.582 171.742 222.769 170.884 225.05 170.881H287.298C289.579 170.884 291.765 171.742 293.378 173.267C294.991 174.793 295.898 176.861 295.901 179.018V227.363C295.898 229.52 294.991 231.588 293.378 233.114C291.765 234.639 289.579 235.498 287.298 235.5ZM225.05 171.838C223.037 171.841 221.108 172.598 219.685 173.944C218.261 175.29 217.461 177.115 217.459 179.018V227.363C217.461 229.266 218.261 231.091 219.685 232.437C221.108 233.783 223.037 234.541 225.05 234.543H287.298C289.31 234.541 291.24 233.783 292.663 232.437C294.086 231.091 294.887 229.266 294.889 227.363V179.018C294.887 177.115 294.086 175.29 292.663 173.944C291.24 172.598 289.31 171.841 287.298 171.838H225.05Z" fill="#3F3D56"/>
<path d="M394.587 173.274H332.339C327.867 173.274 324.242 176.703 324.242 180.933V229.277C324.242 233.507 327.867 236.936 332.339 236.936H394.587C399.059 236.936 402.684 233.507 402.684 229.277V180.933C402.684 176.703 399.059 173.274 394.587 173.274Z" fill="#F2F2F2"/>
<path d="M240.684 133.82C240.672 133.82 240.661 133.82 240.65 133.819L233.57 133.571C233.349 133.565 233.138 133.483 232.976 133.341C232.814 133.199 232.712 133.007 232.688 132.799C232.201 128.687 230.195 107.731 238.596 99.0215C239.785 97.7639 241.256 96.7724 242.9 96.119C244.545 95.4656 246.322 95.1667 248.104 95.2439C248.177 95.2483 248.249 95.2338 248.313 95.202C248.378 95.1703 248.432 95.1226 248.469 95.0639L250.183 92.5164C250.277 92.3784 250.41 92.268 250.567 92.1976C250.724 92.1273 250.898 92.1 251.07 92.1186C252.445 92.2757 259.449 93.017 262.395 92.2105C262.568 92.162 262.753 92.163 262.926 92.2134C263.1 92.2638 263.253 92.3613 263.368 92.4937L265.619 95.0955C265.657 95.1426 265.707 95.1802 265.765 95.2053C265.822 95.2303 265.884 95.242 265.947 95.2395C267.092 95.2177 271.106 95.4274 274.619 99.1438C278.423 103.168 282.349 112.248 279.449 132.648C279.418 132.858 279.309 133.05 279.141 133.189C278.973 133.328 278.757 133.406 278.533 133.406H272.957C272.736 133.405 272.522 133.33 272.355 133.193C272.187 133.056 272.077 132.866 272.044 132.659L270.223 120.771C270.208 120.674 270.154 120.585 270.073 120.523C269.992 120.46 269.89 120.429 269.785 120.435C269.681 120.441 269.583 120.484 269.511 120.555C269.439 120.627 269.397 120.721 269.395 120.82L269.269 126.401C269.266 126.567 269.212 126.728 269.115 126.866C269.018 127.004 268.881 127.113 268.722 127.18C266.734 128.007 256.23 131.884 244.621 127.028C244.464 126.961 244.329 126.854 244.233 126.72C244.136 126.585 244.081 126.428 244.073 126.265L243.845 121.194C243.84 121.095 243.796 121.001 243.722 120.931C243.648 120.861 243.548 120.821 243.443 120.817C243.339 120.814 243.237 120.848 243.157 120.912C243.078 120.977 243.027 121.068 243.015 121.166L241.6 133.045C241.574 133.258 241.466 133.454 241.297 133.597C241.128 133.74 240.91 133.819 240.684 133.82Z" fill="#34D1C9"/>
<path d="M269.972 221.398H269.967L242.223 221.232C242.022 221.231 241.827 221.16 241.677 221.032C241.527 220.905 241.431 220.73 241.407 220.541L238.616 198.105C238.599 197.96 238.527 197.826 238.414 197.727C238.301 197.628 238.154 197.572 238 197.568C235.797 197.5 230.557 197.025 229.471 194.091C228.504 191.478 231.149 187.624 237.333 182.636C237.438 182.551 237.564 182.492 237.7 182.465C237.835 182.438 237.976 182.443 238.108 182.481C238.241 182.518 238.362 182.586 238.459 182.679C238.557 182.772 238.628 182.887 238.667 183.012L241.877 193.488C241.916 193.613 241.997 193.724 242.108 193.803C242.218 193.882 242.353 193.926 242.491 193.927L268.797 194.094C268.934 194.095 269.069 194.055 269.18 193.978C269.292 193.901 269.374 193.792 269.415 193.668L272.987 182.918C273.027 182.798 273.096 182.689 273.19 182.6C273.284 182.511 273.399 182.444 273.526 182.406C273.652 182.368 273.787 182.36 273.918 182.381C274.049 182.403 274.172 182.454 274.278 182.53C276.715 184.291 284.567 190.336 283.275 194.202C282.598 196.227 279.545 197.355 274.201 197.557C274.047 197.562 273.901 197.618 273.788 197.717C273.675 197.816 273.604 197.949 273.587 198.094L270.794 220.706C270.771 220.897 270.674 221.073 270.523 221.2C270.371 221.328 270.175 221.398 269.972 221.398Z" fill="#34D1C9"/>
<path d="M391.55 126.918C382.832 128.505 374.611 131.949 367.509 136.988C367.149 136.084 366.473 135.324 365.592 134.835C364.99 134.482 364.334 134.221 363.646 134.062C363.021 133.911 362.42 134.271 361.868 134.789C361.234 135.453 360.701 136.199 360.287 137.004C350.759 130.819 336.307 126.872 336.307 126.872V125.634C336.318 125.343 336.35 125.052 336.401 124.765C336.45 124.432 336.511 124.138 336.589 123.779C337.815 117.88 342.662 104.4 342.662 104.4H348.143L358.77 106.487L370.725 105.795L382.767 103.425L384.328 103.116C386.932 105.049 389.887 118.579 391.047 124.339C391.195 125.07 391.309 125.673 391.395 126.118C391.497 126.62 391.55 126.918 391.55 126.918Z" fill="white"/>
<path d="M358.845 186.303C358.845 186.303 356.299 186.905 352.351 197.02C348.403 207.134 347.004 220.203 347.004 220.203C347.004 220.203 344.784 223.759 354.261 223.997C354.261 223.997 353.498 226.345 358.845 225.985C364.192 225.624 363.423 225.628 363.423 225.628C363.423 225.628 366.86 223.58 368.389 223.941C369.917 224.301 370.872 224.424 372.526 225.747C374.18 227.069 379.467 226.53 379.53 225.509C379.573 225.007 379.573 224.502 379.53 224C379.53 224 387.616 224.483 386.087 218.943C384.559 213.402 383.286 204.31 383.286 204.31C383.286 204.31 379.149 186.548 374.435 186.306C369.721 186.065 358.845 186.303 358.845 186.303Z" fill="white"/>
<path d="M97.4912 169.252C105.876 169.252 112.674 162.823 112.674 154.892C112.674 146.961 105.876 140.532 97.4912 140.532C89.1062 140.532 82.3088 146.961 82.3088 154.892C82.3088 162.823 89.1062 169.252 97.4912 169.252Z" fill="#2F2E41"/>
<path d="M98.7665 169.279C105.631 169.279 111.196 164.016 111.196 157.523C111.196 151.03 105.631 145.766 98.7665 145.766C91.9017 145.766 86.3367 151.03 86.3367 157.523C86.3367 164.016 91.9017 169.279 98.7665 169.279Z" fill="#FFB8B8"/>
<path d="M146.104 193.281C145.907 193.469 145.726 193.671 145.562 193.886L120.479 193.048L117.611 187.959L108.925 191.05L113.078 200.526C113.414 201.291 114.003 201.933 114.757 202.355C115.511 202.777 116.389 202.956 117.26 202.866L145.643 199.918C146.303 200.725 147.206 201.324 148.234 201.634C149.262 201.944 150.365 201.95 151.397 201.652C152.429 201.355 153.341 200.767 154.011 199.967C154.681 199.168 155.078 198.194 155.148 197.176C155.219 196.158 154.961 195.144 154.407 194.268C153.853 193.392 153.031 192.697 152.049 192.274C151.067 191.851 149.973 191.721 148.911 191.901C147.849 192.081 146.87 192.562 146.104 193.281H146.104Z" fill="#FFB8B8"/>
<path d="M105.584 195.626C105.264 195.49 104.979 195.291 104.749 195.042C104.518 194.792 104.347 194.499 104.247 194.181L100.753 183.091C99.9945 181.555 99.9107 179.798 100.52 178.204C101.13 176.609 102.382 175.309 104.004 174.587C105.626 173.865 107.484 173.781 109.171 174.353C110.858 174.925 112.237 176.107 113.004 177.639L119.772 187.324C119.965 187.601 120.093 187.913 120.147 188.241C120.201 188.568 120.179 188.902 120.084 189.221C119.989 189.54 119.822 189.836 119.595 190.088C119.369 190.341 119.087 190.544 118.77 190.684L107.614 195.611C107.297 195.752 106.951 195.826 106.601 195.828C106.25 195.831 105.904 195.762 105.584 195.626Z" fill="#CCCCCC"/>
<path d="M130.288 308.221L135.738 305.415L126.889 284.2L118.846 288.341L130.288 308.221Z" fill="#FFB8B8"/>
<path d="M127.93 307.254L138.662 301.729L138.662 301.728C139.56 301.266 140.546 300.975 141.563 300.873C142.579 300.771 143.608 300.859 144.588 301.133C145.569 301.407 146.483 301.861 147.279 302.468C148.074 303.076 148.735 303.826 149.224 304.676L149.345 304.886L131.774 313.933L127.93 307.254Z" fill="#2F2E41"/>
<path d="M70.3243 308.244H76.5283L79.4803 285.609L70.3228 285.61L70.3243 308.244Z" fill="#FFB8B8"/>
<path d="M68.7416 306.328L80.9603 306.328H80.9608C81.9833 306.328 82.9959 306.518 83.9406 306.888C84.8854 307.259 85.7438 307.801 86.4669 308.485C87.1899 309.169 87.7635 309.981 88.1548 310.874C88.5461 311.768 88.7476 312.726 88.7476 313.693V313.932L68.7419 313.933L68.7416 306.328Z" fill="#2F2E41"/>
<path d="M108.878 207.784L110.902 230.759L133.483 294.831C133.572 295.083 133.604 295.349 133.578 295.614C133.552 295.878 133.468 296.135 133.332 296.367C133.195 296.599 133.009 296.802 132.785 296.962C132.561 297.122 132.305 297.237 132.031 297.299L125.111 298.857C124.668 298.957 124.202 298.912 123.789 298.731C123.376 298.549 123.039 298.241 122.834 297.856L93.9655 243.695C93.8714 243.518 93.7218 243.374 93.5373 243.281C93.3528 243.188 93.1424 243.151 92.935 243.176C92.7277 243.201 92.5335 243.286 92.3791 243.419C92.2248 243.552 92.1179 243.727 92.073 243.921L79.3685 298.661C79.2696 299.087 79.0196 299.469 78.66 299.742C78.3004 300.016 77.8528 300.165 77.3913 300.165H70.953C70.6849 300.165 70.4193 300.115 70.1719 300.017C69.9245 299.919 69.7001 299.776 69.5118 299.595C69.3236 299.415 69.1752 299.201 69.0754 298.965C68.9756 298.73 68.9263 298.478 68.9304 298.224C69.5204 260.268 67.5741 217.018 83.0681 210.177L85.5985 203.954L108.878 207.784Z" fill="#2F2E41"/>
<path d="M84.8697 205.584L82.2606 190.66C81.8287 188.213 82.0552 185.702 82.9192 183.36C83.7831 181.017 85.2568 178.918 87.2043 177.255C89.1079 175.609 91.4191 174.442 93.9248 173.863C96.4306 173.284 99.0502 173.31 101.542 173.941C101.69 173.978 101.838 174.017 101.986 174.056C105.052 174.886 107.775 176.587 109.787 178.928C111.799 181.268 113.002 184.137 113.235 187.145C113.733 193.626 113.288 203.029 108.337 211.016L108.241 211.171L84.8697 205.584Z" fill="#CCCCCC"/>
<path d="M111.132 151.274C108.291 153.126 104.92 154.111 101.47 154.098C102.701 154.905 104.102 155.45 105.576 155.696C100.99 156.627 96.2495 156.652 91.6521 155.77C90.6302 155.615 89.6442 155.295 88.7372 154.823C88.2853 154.585 87.8915 154.259 87.5815 153.866C87.2716 153.474 87.0523 153.025 86.938 152.547C86.6325 150.897 87.9924 149.397 89.4056 148.386C91.5694 146.863 94.0642 145.813 96.7096 145.313C99.355 144.813 102.085 144.875 104.702 145.495C106.41 145.913 108.122 146.619 109.232 147.917C110.342 149.215 110.67 151.215 109.613 152.552L111.132 151.274Z" fill="#2F2E41"/>
<path d="M97.2914 140.461C98.7323 134.959 93.5681 128.845 87.5758 128.96C81.496 129.076 77.0221 134.272 73.9466 139.234C70.8712 144.196 67.8147 149.82 62.1687 151.956C60.3003 152.663 58.2757 152.921 56.2763 152.705C54.277 152.49 52.3653 151.809 50.7128 150.722C49.0603 149.636 47.7187 148.179 46.8081 146.482C45.8975 144.785 45.4464 142.9 45.4954 140.998C44.7373 147.026 45.7876 153.548 49.8977 158.21C54.0078 162.872 61.6556 164.974 67.1526 161.84C70.2921 160.051 72.2988 156.94 73.9532 153.847C75.6076 150.753 77.0797 147.49 79.5864 144.961C82.0932 142.431 85.9693 140.753 89.4579 141.817C90.8427 142.239 92.085 143.063 93.5157 143.313C94.9464 143.564 96.7477 142.921 96.9431 141.557L97.2914 140.461Z" fill="#2F2E41"/>
<path d="M67.3333 240.234C66.8174 239.662 66.4403 238.99 66.2287 238.266C66.017 237.541 65.9759 236.782 66.1082 236.04C66.2406 235.299 66.5431 234.594 66.9946 233.976C67.446 233.357 68.0355 232.839 68.7213 232.459L79.5035 186.749L90.4412 190.995L76.4033 234.592C77.0017 235.724 77.1403 237.024 76.7929 238.246C76.4454 239.468 75.636 240.528 74.518 241.223C73.4 241.919 72.0512 242.202 70.727 242.02C69.4028 241.838 68.1953 241.202 67.3333 240.234H67.3333Z" fill="#FFB8B8"/>
<path d="M75.2314 193.306C75.0592 193.018 74.9548 192.698 74.9255 192.368C74.8961 192.037 74.9423 191.705 75.0611 191.393L79.2073 180.506C79.5602 178.844 80.5956 177.382 82.0863 176.441C83.5771 175.5 85.4016 175.156 87.1598 175.486C88.918 175.815 90.4664 176.79 91.4655 178.198C92.4645 179.605 92.8327 181.33 92.4894 182.994L91.8595 194.588C91.8415 194.919 91.7483 195.242 91.5863 195.536C91.4243 195.83 91.1972 196.087 90.9206 196.29C90.6439 196.493 90.3242 196.638 89.9833 196.714C89.6423 196.79 89.288 196.795 88.9445 196.73L76.8743 194.434C76.5308 194.369 76.2062 194.235 75.9226 194.04C75.6391 193.845 75.4033 193.595 75.2314 193.306Z" fill="#CCCCCC"/>
<path d="M163.573 188.18L163.393 188.157L164.069 183.503C164.173 182.788 163.973 182.064 163.512 181.49C163.051 180.915 162.368 180.537 161.613 180.439L151.188 179.083C150.433 178.985 149.667 179.175 149.059 179.611C148.452 180.046 148.052 180.692 147.948 181.407L144.238 206.939C144.134 207.653 144.334 208.377 144.795 208.952C145.256 209.526 145.939 209.904 146.694 210.003L157.119 211.358C157.874 211.456 158.64 211.267 159.248 210.831C159.855 210.395 160.255 209.749 160.358 209.035L162.911 191.469L163.091 191.493L163.573 188.18Z" fill="#3F3D56"/>
<path d="M161.285 181.804L159.987 181.636C160.027 181.782 160.028 181.935 159.99 182.081C159.952 182.228 159.877 182.364 159.771 182.476C159.664 182.589 159.531 182.675 159.381 182.727C159.231 182.779 159.07 182.796 158.912 182.775L153.215 182.035C153.057 182.014 152.907 181.957 152.778 181.869C152.649 181.78 152.544 181.663 152.474 181.528C152.404 181.392 152.37 181.242 152.376 181.092C152.381 180.941 152.426 180.793 152.506 180.663L151.293 180.505C151.027 180.471 150.756 180.486 150.496 180.55C150.236 180.615 149.991 180.727 149.777 180.881C149.563 181.034 149.383 181.226 149.247 181.446C149.111 181.666 149.022 181.908 148.986 182.16L145.451 206.478C145.415 206.73 145.431 206.986 145.499 207.232C145.567 207.478 145.686 207.709 145.848 207.912C146.011 208.115 146.214 208.285 146.446 208.414C146.678 208.542 146.935 208.626 147.201 208.661L157.193 209.96C157.731 210.03 158.276 209.894 158.709 209.584C159.142 209.274 159.426 208.814 159.5 208.305L163.035 183.987C163.109 183.478 162.966 182.962 162.638 182.553C162.31 182.143 161.823 181.874 161.285 181.804L161.285 181.804Z" fill="white"/>
<path d="M154.199 201.994C157.273 201.994 159.766 199.637 159.766 196.729C159.766 193.821 157.273 191.463 154.199 191.463C151.124 191.463 148.632 193.821 148.632 196.729C148.632 199.637 151.124 201.994 154.199 201.994Z" fill="#106964"/>
<path d="M153.647 198.737C153.522 198.738 153.4 198.699 153.3 198.628L153.293 198.624L151.985 197.676C151.924 197.633 151.873 197.578 151.835 197.515C151.796 197.453 151.771 197.384 151.761 197.312C151.751 197.24 151.756 197.167 151.776 197.097C151.795 197.028 151.829 196.962 151.876 196.905C151.922 196.847 151.981 196.799 152.047 196.763C152.113 196.727 152.186 196.703 152.262 196.694C152.338 196.685 152.415 196.689 152.489 196.708C152.562 196.727 152.632 196.759 152.692 196.804L153.54 197.418L155.542 194.948C155.589 194.891 155.646 194.843 155.713 194.807C155.779 194.771 155.852 194.747 155.927 194.738C156.003 194.728 156.08 194.733 156.154 194.752C156.227 194.77 156.296 194.802 156.357 194.846L156.345 194.862L156.357 194.847C156.48 194.935 156.559 195.066 156.58 195.211C156.6 195.355 156.559 195.502 156.465 195.617L154.109 198.523C154.055 198.59 153.985 198.644 153.905 198.681C153.825 198.718 153.736 198.738 153.647 198.737Z" fill="white"/>
<path d="M205.506 314H12.6899C12.5557 314 12.427 313.95 12.3321 313.86C12.2372 313.77 12.1838 313.648 12.1838 313.521C12.1838 313.394 12.2372 313.273 12.3321 313.183C12.427 313.093 12.5557 313.043 12.6899 313.043H205.506C205.64 313.043 205.769 313.093 205.864 313.183C205.959 313.273 206.012 313.394 206.012 313.521C206.012 313.648 205.959 313.77 205.864 313.86C205.769 313.95 205.64 314 205.506 314Z" fill="#3F3D56"/>
</g>
<defs>
<clipPath id="clip0">
<rect width="429" height="314" fill="white"/>
</clipPath>
</defs>
</svg>
