<svg width="702" height="1310" viewBox="0 0 702 1310" fill="none" xmlns="http://www.w3.org/2000/svg">
<path d="M-153.179 1073.6C-49.233 1113.69 86.5792 1029.79 207.883 1033.72C250.096 1035.1 352.831 1060.98 403.006 1054.2C502.476 1040.77 604.82 989.351 603.478 908.838C602.028 821.869 539.05 661.93 539.05 661.93C539.05 661.93 424.749 374.378 416.03 355.256L368.388 205.584C345.319 153.36 316.786 96.6563 252.897 80.6755C208.896 69.647 157.007 80.6761 107.984 92.3106C47.7457 106.606 -16.779 124.092 -61.6832 165.056C-113.073 211.892 -124.86 276.455 -162.948 330.59C-224.619 418.381 -352.483 475.31 -391.013 568.867C-408.993 612.54 -403.625 656.903 -392.558 697.47C-371.71 773.958 -319.042 831.398 -290.222 902.706C-265.583 963.657 -224.34 1046.16 -153.179 1073.6Z" fill="url(#paint0_linear)"/>
<defs>
<linearGradient id="paint0_linear" x1="663.531" y1="734.012" x2="-361.545" y2="606.324" gradientUnits="userSpaceOnUse">
<stop stop-color="#106964"/>
<stop offset="1" stop-color="#34D1C9"/>
</linearGradient>
</defs>
</svg>
